<?xml version="1.0" encoding="utf-8"?>
<!-- Generator: Adobe Illustrator 18.1.0, SVG Export Plug-In . SVG Version: 6.00 Build 0)  -->
<!DOCTYPE svg PUBLIC "-//W3C//DTD SVG 1.1//EN" "http://www.w3.org/Graphics/SVG/1.1/DTD/svg11.dtd">
<svg version="1.1" id="Layer_1" xmlns="http://www.w3.org/2000/svg" xmlns:xlink="http://www.w3.org/1999/xlink" x="0px" y="0px"
	 viewBox="0 0 144 144" enable-background="new 0 0 144 144" xml:space="preserve">
<g>
	<circle fill="#BCBEC0" cx="72" cy="72" r="71.3"/>
	<path fill="#FFFFFF" d="M34.8,73.8h74.5c5.7,0,8.7-6.7,4.9-10.9L76.9,21.6c-2.6-2.9-7.1-2.9-9.7,0L29.9,62.9
		C26.1,67.1,29.1,73.8,34.8,73.8z"/>
	<path fill="#FFFFFF" d="M87.2,124.6H56.8c-1.3,0-2.3-1-2.3-2.3V64.9c0-1.3,1-2.3,2.3-2.3h30.4c1.3,0,2.3,1,2.3,2.3v57.4
		C89.5,123.6,88.5,124.6,87.2,124.6z"/>
</g>
<path fill="none" stroke="#BCBEC0" stroke-width="3.9515" stroke-linecap="round" stroke-miterlimit="10" d="M113.5,130.8"/>
<ellipse fill="#C5D7DA" cx="72" cy="72" rx="71.3" ry="71.3"/>
<circle fill="#BCBEC0" cx="-136.4" cy="81.2" r="21.6"/>
<circle fill="#BCBEC0" cx="-191" cy="80.8" r="21.6"/>
<circle fill="#FFFFFF" cx="-148.7" cy="81.2" r="3.7"/>
<circle fill="#FFFFFF" cx="-25.5" cy="70.3" r="3.7"/>
<circle fill="#FFFFFF" cx="-25.5" cy="91" r="3.7"/>
<polyline fill="none" stroke="#FFFFFF" stroke-width="2" stroke-miterlimit="10" points="-129.5,70.5 -148.7,81.2 -129.5,91.2 "/>
<path fill="none" stroke="#FFFFFF" stroke-width="6.4064" stroke-miterlimit="10" d="M48.2,23h46.7c1,0,1.8,0.9,1.8,2.1v76.1
	c0,0.6-0.2,1.1-0.5,1.5l-22.8,25.7c-0.7,0.8-1.8,0.8-2.6,0l-23.9-25.7c-0.4-0.4-0.6-0.9-0.6-1.5V25.1C46.3,23.9,47.2,23,48.2,23z"/>
<line fill="none" stroke="#FFFFFF" stroke-width="6.4064" stroke-miterlimit="10" x1="46.3" y1="40.7" x2="96.7" y2="40.7"/>
<line fill="none" stroke="#FFFFFF" stroke-width="6.4064" stroke-miterlimit="10" x1="46.3" y1="54" x2="96.7" y2="54"/>
<polygon fill="#FFFFFF" points="62,119 81.7,119 73.3,128.4 "/>
</svg>
