<?xml version="1.0" encoding="utf-8"?>
<!-- Generator: Adobe Illustrator 18.1.0, SVG Export Plug-In . SVG Version: 6.00 Build 0)  -->
<!DOCTYPE svg PUBLIC "-//W3C//DTD SVG 1.1//EN" "http://www.w3.org/Graphics/SVG/1.1/DTD/svg11.dtd">
<svg version="1.1" id="Layer_1" xmlns="http://www.w3.org/2000/svg" xmlns:xlink="http://www.w3.org/1999/xlink" x="0px" y="0px"
	 viewBox="0 0 36 36" enable-background="new 0 0 36 36" xml:space="preserve">
<g>
	<circle fill="#BCBEC0" cx="18" cy="18" r="18"/>
	<path fill="#FFFFFF" d="M8.6,18.5h18.8c1.4,0,2.2-1.7,1.2-2.8L19.2,5.3c-0.7-0.7-1.8-0.7-2.5,0L7.4,15.7
		C6.4,16.8,7.2,18.5,8.6,18.5z"/>
	<path fill="#FFFFFF" d="M20.1,31.3h-4.2c-1.3,0-2.3-1-2.3-2.3v-11c0-1.3,1-2.3,2.3-2.3h4.2c1.3,0,2.3,1,2.3,2.3v11
		C22.4,30.2,21.4,31.3,20.1,31.3z"/>
</g>
<path fill="none" stroke="#BCBEC0" stroke-width="0.9981" stroke-linecap="round" stroke-miterlimit="10" d="M28.5,32.8"/>
<circle fill="#BCBEC0" cx="18" cy="18" r="18"/>
<path fill="#FFFFFF" d="M18,21.1L18,21.1c-2.3,0-4.2-1.9-4.2-4.2V7c0-2.3,1.9-4.2,4.2-4.2h0c2.3,0,4.2,1.9,4.2,4.2v9.9
	C22.2,19.2,20.3,21.1,18,21.1z"/>
<path fill="none" stroke="#FFFFFF" stroke-width="3.3274" stroke-linecap="round" stroke-miterlimit="10" d="M10.5,13.9
	c0,0-1.3,11.3,7.4,10.4c0,0,8.4,1.1,7.5-10.1"/>
<line fill="none" stroke="#FFFFFF" stroke-width="3.007" stroke-linecap="round" stroke-miterlimit="10" x1="18" y1="25.3" x2="18" y2="29.9"/>
<line fill="none" stroke="#FFFFFF" stroke-width="3.3274" stroke-linecap="round" stroke-miterlimit="10" x1="11.8" y1="29.9" x2="23.7" y2="29.9"/>
<ellipse fill="#BCBEC0" cx="18" cy="18" rx="18" ry="18"/>
<circle fill="#FFFFFF" cx="7.8" cy="18" r="3.1"/>
<circle fill="#FFFFFF" cx="23.8" cy="9.1" r="3.1"/>
<circle fill="#FFFFFF" cx="23.8" cy="26.3" r="3.1"/>
<polyline fill="none" stroke="#FFFFFF" stroke-width="1.6626" stroke-miterlimit="10" points="23.8,9.1 7.8,18 23.8,26.3 "/>
<g>
	<circle fill="#BCBEC0" cx="18" cy="18" r="18"/>
	<path fill="none" stroke="#FFFFFF" stroke-width="1.3277" stroke-miterlimit="10" d="M26.7,27.1H9.3c-1.9,0-3.5-1.6-3.5-3.5v-9.8
		c0-1.9,1.6-3.5,3.5-3.5h17.5c1.9,0,3.5,1.6,3.5,3.5v9.8C30.2,25.5,28.7,27.1,26.7,27.1z"/>
	<path fill="#FFFFFF" d="M15.8,14.3v8.8c0,0.3,0.3,0.4,0.6,0.3l5.2-4.4c0.2-0.1,0.2-0.4,0-0.5L16.4,14C16.2,13.8,15.8,14,15.8,14.3z
		"/>
</g>
</svg>
