<?xml version="1.0" encoding="utf-8"?>
<!-- Generator: Adobe Illustrator 18.1.0, SVG Export Plug-In . SVG Version: 6.00 Build 0)  -->
<!DOCTYPE svg PUBLIC "-//W3C//DTD SVG 1.1//EN" "http://www.w3.org/Graphics/SVG/1.1/DTD/svg11.dtd">
<svg version="1.1" id="Layer_1" xmlns="http://www.w3.org/2000/svg" xmlns:xlink="http://www.w3.org/1999/xlink" x="0px" y="0px"
	 viewBox="82 0 628 612" enable-background="new 82 0 628 612" xml:space="preserve">
<circle fill="#2F368F" cx="396" cy="306" r="289"/>
<path fill="#F2F7FA" d="M437.2,158.8l-169,199.5c-3.3,3.9-5.4,8.8-5.8,13.9l-7.9,87c-1,11.3,9.4,20.1,20.4,17.3l84.5-22.1
	c5-1.3,9.5-4.1,12.8-8.1l169-199.5c3.1-3.6,2.6-9-1-12.1l-90.8-76.9C445.6,154.7,440.2,155.2,437.2,158.8z"/>
<path fill="#F2F7FA" d="M550.4,228.5l-96.7-81.9c-2-1.7-2.2-4.7-0.6-6.7l26.7-31.5c1.7-2,4.7-2.2,6.7-0.6l96.7,81.9
	c2,1.7,2.2,4.7,0.6,6.7l-26.7,31.5C555.4,229.9,552.4,230.1,550.4,228.5z"/>
</svg>
