<?xml version="1.0" encoding="utf-8"?>
<!-- Generator: Adobe Illustrator 18.1.0, SVG Export Plug-In . SVG Version: 6.00 Build 0)  -->
<!DOCTYPE svg PUBLIC "-//W3C//DTD SVG 1.1//EN" "http://www.w3.org/Graphics/SVG/1.1/DTD/svg11.dtd">
<svg version="1.1" id="Layer_1" xmlns="http://www.w3.org/2000/svg" xmlns:xlink="http://www.w3.org/1999/xlink" x="0px" y="0px"
	 viewBox="0 0 792 612" enable-background="new 0 0 792 612" xml:space="preserve">
<path fill="none" stroke="#BCBEC0" stroke-width="3.9515" stroke-linecap="round" stroke-miterlimit="10" d="M477.9,592.4"/>
<circle fill="#BCBEC0" cx="-489.7" cy="345.1" r="91.8"/>
<circle fill="#BCBEC0" cx="-721.8" cy="343.4" r="91.8"/>
<circle fill="#FFFFFF" cx="-542" cy="345.1" r="15.7"/>
<circle fill="#FFFFFF" cx="-18.4" cy="298.8" r="15.7"/>
<circle fill="#FFFFFF" cx="-18.4" cy="386.8" r="15.7"/>
<polyline fill="none" stroke="#FFFFFF" stroke-width="2" stroke-miterlimit="10" points="-460.4,299.6 -542,345.1 -460.4,387.6 "/>
<path fill="none" stroke="#2F368F" stroke-width="31" stroke-miterlimit="10" d="M388.7,64.2l184.5,73.1c4,1.6,5.7,6.4,3.8,11.1
	L457.9,449.1c-0.9,2.4-2.5,4-4.3,5.1l-130.3,65.8c-4,2.1-8.4,0.3-10.3-4.1l-54.2-139c-1-2.2-1-4.5,0-6.9L377.9,69.5
	C379.8,64.8,384.8,62.7,388.7,64.2z"/>
<line fill="none" stroke="#2F368F" stroke-width="20" stroke-miterlimit="10" x1="353.5" y1="131.2" x2="552.6" y2="210.1"/>
<line fill="none" stroke="#2F368F" stroke-width="20" stroke-miterlimit="10" x1="332.7" y1="183.7" x2="531.8" y2="262.7"/>
<polygon fill="#2F368F" points="292.9,465.1 370.8,496 322.9,520 "/>
<image overflow="visible" width="122" height="74" xlink:href="../../../../../../Desktop/Screen Shot 2014-11-20 at 11.42.47 AM.png"  transform="matrix(1.1467 0 0 1.1467 -156.85 209.6301)">
</image>
</svg>
