<?xml version="1.0" encoding="utf-8"?>
<!-- Generator: Adobe Illustrator 18.1.0, SVG Export Plug-In . SVG Version: 6.00 Build 0)  -->
<!DOCTYPE svg PUBLIC "-//W3C//DTD SVG 1.1//EN" "http://www.w3.org/Graphics/SVG/1.1/DTD/svg11.dtd">
<svg version="1.1" id="Layer_1" xmlns="http://www.w3.org/2000/svg" xmlns:xlink="http://www.w3.org/1999/xlink" x="0px" y="0px"
	 viewBox="0 0 144 144" enable-background="new 0 0 144 144" xml:space="preserve">
<g>
	<circle fill="#BCBEC0" cx="72" cy="72" r="71.3"/>
	<path fill="#FFFFFF" d="M34.8,73.8h74.5c5.7,0,8.7-6.7,4.9-10.9L76.9,21.6c-2.6-2.9-7.1-2.9-9.7,0L29.9,62.9
		C26.1,67.1,29.1,73.8,34.8,73.8z"/>
	<path fill="#FFFFFF" d="M87.2,124.6H56.8c-1.3,0-2.3-1-2.3-2.3V64.9c0-1.3,1-2.3,2.3-2.3h30.4c1.3,0,2.3,1,2.3,2.3v57.4
		C89.5,123.6,88.5,124.6,87.2,124.6z"/>
</g>
<path fill="none" stroke="#BCBEC0" stroke-width="3.9515" stroke-linecap="round" stroke-miterlimit="10" d="M113.5,130.8"/>
<ellipse fill="#BCBEC0" cx="72" cy="72" rx="71.3" ry="71.3"/>
<path fill="#FFFFFF" d="M72,84.4L72,84.4c-9.2,0-16.6-7.5-16.6-16.6V28.5c0-9.2,7.5-16.6,16.6-16.6h0c9.2,0,16.6,7.5,16.6,16.6v39.2
	C88.6,76.9,81.2,84.4,72,84.4z"/>
<path fill="none" stroke="#FFFFFF" stroke-width="13.1733" stroke-linecap="round" stroke-miterlimit="10" d="M42.4,55.8
	c0,0-5.3,44.9,29.4,41.2c0,0,33.4,4.5,29.9-40.1"/>
<line fill="none" stroke="#FFFFFF" stroke-width="11.9048" stroke-linecap="round" stroke-miterlimit="10" x1="71.8" y1="101" x2="71.8" y2="118.9"/>
<line fill="none" stroke="#FFFFFF" stroke-width="13.1733" stroke-linecap="round" stroke-miterlimit="10" x1="47.5" y1="118.9" x2="94.7" y2="118.9"/>
<ellipse fill="#BCBEC0" cx="72" cy="71.9" rx="71.3" ry="71.2"/>
<ellipse fill="#FFFFFF" cx="31.7" cy="71.9" rx="12.1" ry="12.1"/>
<ellipse fill="#FFFFFF" cx="94.9" cy="36.8" rx="12.1" ry="12.1"/>
<ellipse fill="#FFFFFF" cx="94.9" cy="104.8" rx="12.1" ry="12.1"/>
<polyline fill="none" stroke="#FFFFFF" stroke-width="6.5823" stroke-miterlimit="10" points="94.9,36.8 31.7,71.9 94.9,104.8 "/>
<g>
	<circle fill="#BCBEC0" cx="72" cy="72" r="71.3"/>
	<path fill="none" stroke="#FFFFFF" stroke-width="5.2565" stroke-miterlimit="10" d="M116.9,107.8H27.1c-1.9,0-3.5-1.6-3.5-3.5V45
		c0-1.9,1.6-3.5,3.5-3.5h89.7c1.9,0,3.5,1.6,3.5,3.5v59.4C120.3,106.3,118.8,107.8,116.9,107.8z"/>
	<path fill="#FFFFFF" d="M63.4,57.2v34.9c0,1.1,1.3,1.8,2.2,1l20.8-17.4c0.6-0.5,0.6-1.5,0-2.1L65.6,56.2
		C64.7,55.5,63.4,56.1,63.4,57.2z"/>
</g>
</svg>
