<?xml version="1.0" encoding="utf-8"?>
<!-- Generator: Adobe Illustrator 18.1.0, SVG Export Plug-In . SVG Version: 6.00 Build 0)  -->
<!DOCTYPE svg PUBLIC "-//W3C//DTD SVG 1.1//EN" "http://www.w3.org/Graphics/SVG/1.1/DTD/svg11.dtd">
<svg version="1.1" id="Layer_1" xmlns="http://www.w3.org/2000/svg" xmlns:xlink="http://www.w3.org/1999/xlink" x="0px" y="0px"
	 viewBox="0 0 144 144" enable-background="new 0 0 144 144" xml:space="preserve">
<g>
	<circle fill="#BCBEC0" cx="72" cy="72" r="71.3"/>
	<path fill="#FFFFFF" d="M34.8,73.8h74.5c5.7,0,8.7-6.7,4.9-10.9L76.9,21.6c-2.6-2.9-7.1-2.9-9.7,0L29.9,62.9
		C26.1,67.1,29.1,73.8,34.8,73.8z"/>
	<path fill="#FFFFFF" d="M87.2,124.6H56.8c-1.3,0-2.3-1-2.3-2.3V64.9c0-1.3,1-2.3,2.3-2.3h30.4c1.3,0,2.3,1,2.3,2.3v57.4
		C89.5,123.6,88.5,124.6,87.2,124.6z"/>
</g>
<path fill="none" stroke="#BCBEC0" stroke-width="3.9515" stroke-linecap="round" stroke-miterlimit="10" d="M113.5,130.8"/>
<ellipse fill="#C5D7DA" cx="72" cy="72" rx="71.3" ry="71.3"/>
<path fill="#FFFFFF" d="M72,84.4L72,84.4c-9.2,0-16.6-7.5-16.6-16.6V28.5c0-9.2,7.5-16.6,16.6-16.6l0,0c9.2,0,16.6,7.5,16.6,16.6
	v39.2C88.6,76.9,81.2,84.4,72,84.4z"/>
<path fill="none" stroke="#FFFFFF" stroke-width="13.1733" stroke-linecap="round" stroke-miterlimit="10" d="M42.4,55.8
	c0,0-5.3,44.9,29.4,41.2c0,0,33.4,4.5,29.9-40.1"/>
<line fill="none" stroke="#FFFFFF" stroke-width="11.9048" stroke-linecap="round" stroke-miterlimit="10" x1="71.8" y1="101" x2="71.8" y2="118.9"/>
<line fill="none" stroke="#FFFFFF" stroke-width="13.1733" stroke-linecap="round" stroke-miterlimit="10" x1="47.5" y1="118.9" x2="94.7" y2="118.9"/>
<circle fill="#BCBEC0" cx="-32.4" cy="81" r="21.6"/>
<circle fill="#BCBEC0" cx="-87" cy="80.7" r="21.6"/>
<circle fill="#FFFFFF" cx="-44.7" cy="81" r="3.7"/>
<circle fill="#FFFFFF" cx="-25.5" cy="70.3" r="3.7"/>
<circle fill="#FFFFFF" cx="-25.5" cy="91" r="3.7"/>
<polyline fill="none" stroke="#FFFFFF" stroke-width="2" stroke-miterlimit="10" points="-25.5,70.3 -44.7,81 -25.5,91 "/>
<ellipse fill="#C5D7DA" cx="173.3" cy="-88" rx="71.3" ry="71.3"/>
</svg>
