<?xml version="1.0" encoding="utf-8"?>
<!-- Generator: Adobe Illustrator 18.1.0, SVG Export Plug-In . SVG Version: 6.00 Build 0)  -->
<!DOCTYPE svg PUBLIC "-//W3C//DTD SVG 1.1//EN" "http://www.w3.org/Graphics/SVG/1.1/DTD/svg11.dtd">
<svg version="1.1" id="Layer_1" xmlns="http://www.w3.org/2000/svg" xmlns:xlink="http://www.w3.org/1999/xlink" x="0px" y="0px"
	 viewBox="90 0 618 612" enable-background="new 90 0 618 612" xml:space="preserve">
<circle fill="#2F368F" cx="396" cy="306" r="289"/>
<line fill="none" stroke="#F2F7FA" stroke-width="29.273" stroke-linecap="round" stroke-miterlimit="10" x1="395.1" y1="492.2" x2="395.1" y2="191.9"/>
<path fill="none" stroke="#F2F7FA" stroke-width="25.0911" stroke-linecap="round" stroke-miterlimit="10" d="M394,426
	c0.7-4.6,6.6-54.9-32-90.6c-34.5-32-77.5-27.4-83.5-26.7"/>
<path fill="none" stroke="#F2F7FA" stroke-width="25.0911" stroke-linecap="round" stroke-miterlimit="10" d="M395.8,426.6
	c-0.7-4.6-6.6-54.9,32-90.6c34.5-32,77.5-27.4,83.5-26.7"/>
<path fill="#F2F7FA" d="M339.1,187.6l112.5,1.1c9.4,0.2,14.8-10.7,9.1-18.3L411.1,106c-7.5-9.6-21.9-9.8-29.3-0.4l-51.2,64
	C324.9,176.9,330,187.4,339.1,187.6z"/>
<path fill="#F2F7FA" d="M277.9,355.4l6.6-90.5c0.5-7.6-7.8-12.4-14.2-8.2l-54.4,36.4c-8.2,5.5-8.9,17.1-1.8,23.6l48.9,44.4
	C268.7,366.2,277.4,362.9,277.9,355.4z"/>
<path fill="#F2F7FA" d="M515.8,358.8l-6.6-90.5c-0.5-7.6,7.8-12.4,14.2-8.2l54.4,36.4c8.2,5.5,8.9,17.1,1.8,23.6l-48.9,44.4
	C525,369.6,516.3,366.1,515.8,358.8z"/>
</svg>
