<?xml version="1.0" encoding="utf-8"?>
<!-- Generator: Adobe Illustrator 18.1.0, SVG Export Plug-In . SVG Version: 6.00 Build 0)  -->
<!DOCTYPE svg PUBLIC "-//W3C//DTD SVG 1.1//EN" "http://www.w3.org/Graphics/SVG/1.1/DTD/svg11.dtd">
<svg version="1.1" id="Layer_1" xmlns="http://www.w3.org/2000/svg" xmlns:xlink="http://www.w3.org/1999/xlink" x="0px" y="0px"
	 viewBox="0 0 144 144" enable-background="new 0 0 144 144" xml:space="preserve">
<circle fill="#C5D7DA" cx="72" cy="72" r="71.3"/>
<path fill="#FFFFFF" d="M34.8,73.8h74.5c5.7,0,8.7-6.7,4.9-10.9L76.9,21.6c-2.6-2.9-7.1-2.9-9.7,0L29.9,62.9
	C26.1,67.1,29.1,73.8,34.8,73.8z"/>
<path fill="#FFFFFF" d="M87.2,124.6H56.8c-1.3,0-2.3-1-2.3-2.3V64.9c0-1.3,1-2.3,2.3-2.3h30.4c1.3,0,2.3,1,2.3,2.3v57.4
	C89.5,123.6,88.5,124.6,87.2,124.6z"/>
<path fill="none" stroke="#BCBEC0" stroke-width="3.9515" stroke-linecap="round" stroke-miterlimit="10" d="M113.5,130.8"/>
<g>
	<circle fill="#BCBEC0" cx="201.6" cy="95.6" r="21.6"/>
	<path fill="#FFFFFF" d="M202,99.4h-0.8c-2.6,0-4.7-2.1-4.7-4.7V82c0-2.6,2.1-4.7,4.7-4.7h0.8c2.6,0,4.7,2.1,4.7,4.7v12.7
		C206.7,97.3,204.6,99.4,202,99.4z"/>
	<path fill="none" stroke="#FFFFFF" stroke-width="4" stroke-linecap="round" stroke-miterlimit="10" d="M192.6,90.7
		c0,0-1.6,13.6,8.9,12.5c0,0,10.1,1.4,9.1-12.2"/>
	
		<line fill="none" stroke="#FFFFFF" stroke-width="3.6148" stroke-linecap="round" stroke-miterlimit="10" x1="201.6" y1="104.4" x2="201.6" y2="109.9"/>
	
		<line fill="none" stroke="#FFFFFF" stroke-width="4" stroke-linecap="round" stroke-miterlimit="10" x1="194.2" y1="109.9" x2="208.5" y2="109.9"/>
</g>
<circle fill="#BCBEC0" cx="-32.4" cy="81" r="21.6"/>
<circle fill="#BCBEC0" cx="-87" cy="80.7" r="21.6"/>
<circle fill="#FFFFFF" cx="-44.7" cy="81" r="3.7"/>
<circle fill="#FFFFFF" cx="-25.5" cy="70.3" r="3.7"/>
<circle fill="#FFFFFF" cx="-25.5" cy="91" r="3.7"/>
<polyline fill="none" stroke="#FFFFFF" stroke-width="2" stroke-miterlimit="10" points="-25.5,70.3 -44.7,81 -25.5,91 "/>
<ellipse fill="#C5D7DA" cx="285.6" cy="-17.2" rx="71.3" ry="71.3"/>
</svg>
