<?xml version="1.0" encoding="utf-8"?>
<!-- Generator: Adobe Illustrator 18.1.0, SVG Export Plug-In . SVG Version: 6.00 Build 0)  -->
<!DOCTYPE svg PUBLIC "-//W3C//DTD SVG 1.1//EN" "http://www.w3.org/Graphics/SVG/1.1/DTD/svg11.dtd">
<svg version="1.1" id="Layer_1" xmlns="http://www.w3.org/2000/svg" xmlns:xlink="http://www.w3.org/1999/xlink" x="0px" y="0px"
	 viewBox="126 216 360 360" enable-background="new 126 216 360 360" xml:space="preserve">
<path fill="none" stroke="#2F368F" stroke-width="40" stroke-miterlimit="10" d="M-443.2,349h244.6c18.7,0,28.6-22,16.1-35.8
	L-305,177.6c-8.5-9.5-23.3-9.5-31.8,0l-122.5,135.6C-471.8,327-461.9,349-443.2,349z"/>
<path fill="none" stroke="#2F368F" stroke-width="36.1705" stroke-miterlimit="10" d="M-271.1,515.8H-371c-4.2,0-7.6-2.7-7.6-6.2
	V355.5c0-3.5,3.2-6.2,7.6-6.2h99.8c4.2,0,7.6,2.7,7.6,6.2v154.2C-263.6,513.2-266.9,515.8-271.1,515.8z"/>
<path fill="none" stroke="#BCBEC0" stroke-width="3.9515" stroke-linecap="round" stroke-miterlimit="10" d="M-184.8,536.2"/>
<circle fill="none" stroke="#2F368F" stroke-width="18.8834" stroke-miterlimit="10" cx="306" cy="396" r="170"/>
<path fill="none" stroke="#2F368F" stroke-width="18.8834" stroke-miterlimit="10" d="M389.2,474.6H222.8
	c-11.2,0-20.3-9.1-20.3-20.3v-111c0-11.2,9.1-20.3,20.3-20.3h166.5c11.2,0,20.3,9.1,20.3,20.3v111
	C409.5,465.5,400.4,474.6,389.2,474.6z"/>
<path fill="none" stroke="#2F368F" stroke-width="17.5058" stroke-linecap="round" stroke-miterlimit="10" d="M383.5,275.5
	c-30.1-8.3-62.6-1.8-82.5,16.8c-25.2,23.4-26.4,62.4,0,90.2"/>
<path fill="none" stroke="#2F368F" stroke-width="13.7193" stroke-linecap="round" stroke-miterlimit="10" d="M328.9,368.7
	l-52.5,35.4c-4.4,3-3.5,9.7,1.6,11.3l43.5,14.1c6.5,2.1,13.2-2.4,13.7-9.2l3.3-46C338.8,369.1,333.1,365.8,328.9,368.7z"/>
</svg>
