<?xml version="1.0" encoding="utf-8"?>
<!-- Generator: Adobe Illustrator 18.1.0, SVG Export Plug-In . SVG Version: 6.00 Build 0)  -->
<!DOCTYPE svg PUBLIC "-//W3C//DTD SVG 1.1//EN" "http://www.w3.org/Graphics/SVG/1.1/DTD/svg11.dtd">
<svg version="1.1" id="Layer_1" xmlns="http://www.w3.org/2000/svg" xmlns:xlink="http://www.w3.org/1999/xlink" x="0px" y="0px"
	 viewBox="87.6 0 621 612" enable-background="new 87.6 0 621 612" xml:space="preserve">
<path fill="none" stroke="#BCBEC0" stroke-width="3.9515" stroke-linecap="round" stroke-miterlimit="10" d="M-312.4,760.3"/>
<circle fill="#2F368F" cx="396" cy="306" r="289"/>
<g>
	<path fill="#F2F7FA" d="M250.8,311.6h290.3c22.2,0,33.9-27.9,19.1-45.3L414.9,94.6c-10.1-12-27.7-12-37.7,0L231.7,266.3
		C216.9,283.7,228.7,311.6,250.8,311.6z"/>
	<path fill="#F2F7FA" d="M461.3,511.6H330.8c-5.5,0-9.9-3.4-9.9-7.8V308.6c0-4.4,4.2-7.8,9.9-7.8h130.4c5.5,0,9.9,3.4,9.9,7.8v195.2
		C471.1,508.3,466.8,511.6,461.3,511.6z"/>
</g>
</svg>
