<?xml version="1.0" encoding="utf-8"?>
<!-- Generator: Adobe Illustrator 18.1.0, SVG Export Plug-In . SVG Version: 6.00 Build 0)  -->
<!DOCTYPE svg PUBLIC "-//W3C//DTD SVG 1.1//EN" "http://www.w3.org/Graphics/SVG/1.1/DTD/svg11.dtd">
<svg version="1.1" id="Layer_1" xmlns="http://www.w3.org/2000/svg" xmlns:xlink="http://www.w3.org/1999/xlink" x="0px" y="0px"
	 viewBox="0 0 792 612" enable-background="new 0 0 792 612" xml:space="preserve">
<path fill="none" stroke="#2F368F" stroke-width="40" stroke-miterlimit="10" d="M237.9,313.7h316.6c24.2,0,37-28.5,20.8-46.3
	L416.8,91.8c-11-12.3-30.2-12.3-41.2,0L217.1,267.3C200.9,285.2,213.7,313.7,237.9,313.7z"/>
<path fill="none" stroke="#2F368F" stroke-width="36.1705" stroke-miterlimit="10" d="M460.6,529.5H331.4c-5.5,0-9.8-3.5-9.8-8
	V322.1c0-4.5,4.2-8,9.8-8h129.2c5.5,0,9.8,3.5,9.8,8v199.5C470.4,526.1,466.1,529.5,460.6,529.5z"/>
<path fill="none" stroke="#BCBEC0" stroke-width="3.9515" stroke-linecap="round" stroke-miterlimit="10" d="M572.4,555.9"/>
<g>
	<circle fill="#BCBEC0" cx="946.8" cy="406.3" r="91.8"/>
	<path fill="#FFFFFF" d="M948.5,422.5h-3.4c-11,0-20-8.9-20-20v-54c0-11,8.9-20,20-20h3.4c11.1,0,20,8.9,20,20v54
		C968.5,413.5,959.6,422.5,948.5,422.5z"/>
	<path fill="none" stroke="#FFFFFF" stroke-width="4" stroke-linecap="round" stroke-miterlimit="10" d="M908.6,385.5
		c0,0-6.8,57.8,37.8,53.1c0,0,42.9,6,38.7-51.8"/>
	
		<line fill="none" stroke="#FFFFFF" stroke-width="3.6148" stroke-linecap="round" stroke-miterlimit="10" x1="946.8" y1="443.7" x2="946.8" y2="467.1"/>
	
		<line fill="none" stroke="#FFFFFF" stroke-width="4" stroke-linecap="round" stroke-miterlimit="10" x1="915.3" y1="467.1" x2="976.1" y2="467.1"/>
</g>
<circle fill="#BCBEC0" cx="-139.5" cy="75.2" r="91.8"/>
<circle fill="#BCBEC0" cx="-279.8" cy="343" r="91.8"/>
<circle fill="#FFFFFF" cx="-191.8" cy="75.2" r="15.7"/>
<circle fill="#FFFFFF" cx="-110.2" cy="29.8" r="15.7"/>
<circle fill="#FFFFFF" cx="-110.2" cy="117.8" r="15.7"/>
<polyline fill="none" stroke="#FFFFFF" stroke-width="2" stroke-miterlimit="10" points="-110.2,29.8 -191.8,75.2 -110.2,117.8 "/>
<ellipse fill="#C5D7DA" cx="1303.8" cy="-73.1" rx="303" ry="303"/>
<image overflow="visible" width="122" height="74" xlink:href="../../../../../../Desktop/Screen Shot 2014-11-20 at 11.42.47 AM.png"  transform="matrix(1.1467 0 0 1.1467 -201.85 487.1213)">
</image>
<image overflow="visible" width="122" height="74" xlink:href="../../../../../../Desktop/Screen Shot 2014-11-20 at 11.42.47 AM.png"  transform="matrix(1.1467 0 0 1.1467 -215.85 290.6301)">
</image>
<rect x="340" y="273" fill="#FFFFFF" width="112.2" height="84"/>
</svg>
